<?xml version="1.0" standalone="no"?>
<!DOCTYPE svg PUBLIC "-//W3C//DTD SVG 20010904//EN"
 "http://www.w3.org/TR/2001/REC-SVG-20010904/DTD/svg10.dtd">
<svg version="1.0" xmlns="http://www.w3.org/2000/svg"
 width="512.000000pt" height="805.000000pt" viewBox="0 0 512.000000 805.000000"
 preserveAspectRatio="xMidYMid meet">

<g transform="translate(0.000000,805.000000) scale(0.100000,-0.100000)"
fill="#ffffff" stroke="none">
<path d="M2390 8010 c-563 -44 -1084 -284 -1480 -680 -369 -369 -608 -861
-670 -1380 -14 -121 -14 -420 0 -535 54 -431 203 -803 462 -1146 134 -178 337
-376 498 -486 173 -117 427 -250 548 -287 l22 -7 0 299 0 300 -31 12 c-56 24
-202 120 -294 195 -466 378 -700 912 -663 1512 29 468 258 924 620 1230 714
605 1759 563 2419 -96 755 -756 683 -1992 -156 -2663 -80 -64 -187 -134 -262
-172 l-53 -26 0 -299 0 -299 53 19 c109 41 339 161 453 237 192 129 322 244
471 417 302 350 496 791 553 1258 14 114 14 420 0 534 -65 528 -299 1012 -670
1383 -362 361 -845 601 -1340 664 -154 19 -352 26 -480 16z"/>
<path d="M2420 5124 c-234 -50 -440 -252 -495 -485 -64 -272 61 -570 299 -709
l77 -45 -3 -421 -3 -421 -30 -49 c-17 -28 -52 -63 -79 -81 -94 -63 -108 -65
-576 -74 -234 -4 -438 -10 -455 -14 -180 -39 -323 -103 -427 -192 -160 -138
-272 -335 -314 -551 -10 -55 -14 -166 -14 -438 l0 -365 -31 -17 c-173 -95
-275 -213 -336 -391 -23 -65 -27 -93 -27 -196 -1 -136 18 -209 81 -325 46 -83
160 -197 243 -243 115 -63 189 -82 325 -81 103 0 132 4 202 28 159 52 295 168
372 315 54 104 74 186 74 301 0 188 -58 327 -192 460 -53 53 -108 97 -144 115
l-58 30 3 360 c4 360 4 360 30 428 47 123 106 185 218 229 52 21 74 22 470 29
412 6 472 11 603 48 l67 18 0 -556 0 -556 -76 -45 c-282 -166 -395 -539 -253
-836 105 -222 345 -374 589 -374 295 0 567 215 635 501 19 80 19 225 0 304
-38 160 -157 322 -299 405 l-76 45 0 556 0 556 68 -18 c130 -37 190 -42 602
-48 357 -6 421 -10 460 -24 111 -43 188 -123 232 -242 21 -57 22 -78 26 -420
l3 -360 -58 -30 c-36 -18 -90 -62 -143 -115 -135 -135 -193 -272 -193 -460 0
-220 105 -416 289 -539 114 -76 210 -104 359 -105 136 -1 210 18 325 81 83 46
197 160 243 243 63 116 82 189 81 325 0 103 -4 131 -27 196 -61 178 -163 296
-336 391 l-31 17 0 365 c0 272 -4 383 -14 438 -57 295 -234 537 -481 657 -182
88 -275 101 -731 101 -247 0 -351 4 -407 14 -123 24 -197 70 -240 151 -21 39
-22 52 -25 460 l-3 420 77 45 c142 83 261 244 299 405 19 79 19 224 0 304 -68
288 -343 503 -640 500 -38 0 -99 -7 -135 -15z m297 -298 c72 -33 147 -107 181
-177 81 -168 22 -377 -136 -477 -189 -121 -435 -53 -536 146 -72 142 -47 307
63 425 78 83 162 118 281 114 69 -2 97 -8 147 -31z m-1910 -3811 c77 -35 154
-112 190 -189 24 -52 27 -74 27 -151 0 -72 -4 -100 -22 -140 -36 -78 -71 -123
-130 -165 -239 -172 -576 -11 -590 281 -9 187 105 343 285 389 65 16 176 5
240 -25z m1854 19 c142 -41 242 -153 268 -300 29 -161 -61 -330 -212 -400 -54
-26 -73 -29 -157 -29 -84 0 -103 3 -157 29 -190 88 -272 321 -178 506 82 163
265 244 436 194z m1946 -14 c75 -33 121 -69 163 -128 172 -239 11 -576 -281
-590 -92 -5 -158 13 -233 63 -63 42 -97 83 -134 163 -23 48 -27 70 -27 147 0
77 4 98 28 150 48 103 149 188 254 215 59 14 175 5 230 -20z"/>
</g>
</svg>
